<svg xmlns="http://www.w3.org/2000/svg" width="38" height="48" viewBox="0 0 38 48" fill="none">
  <g clip-path="url(#clip0_22_108)">
    <path d="M31.46 25.6274C31.4082 19.7474 36.1797 16.9245 36.3955 16.7869C33.7105 12.7898 29.5318 12.2422 28.041 12.1778C24.4868 11.8118 21.1025 14.3067 19.3009 14.3067C17.4993 14.3067 14.7136 12.2305 11.7666 12.2891C7.88721 12.3477 4.31575 14.5819 2.3185 18.1134C-1.70766 25.2203 1.2911 35.7534 5.21078 41.522C7.13032 44.342 9.41536 47.5191 12.4199 47.402C15.315 47.2849 16.4086 45.4986 19.9024 45.4986C23.3961 45.4986 24.3804 47.402 27.4396 47.3464C30.5505 47.2849 32.5248 44.4649 34.4299 41.6362C36.6286 38.3624 37.5381 35.194 37.5899 35.0271C37.5208 34.9979 31.5233 32.6582 31.46 25.6274Z" fill="#222222"/>
    <path d="M25.7127 8.18885C27.3071 6.22398 28.3834 3.49186 28.0869 0.768677C25.7902 0.862483 23.0103 2.32655 21.3613 4.29142C19.8849 6.02797 18.5899 8.80974 18.9408 11.4775C21.5023 11.6795 24.1182 10.1508 25.7127 8.18885Z" fill="#222222"/>
  </g>
  <defs>
    <clipPath id="clip0_22_108">
      <rect width="37.2" height="46.5" fill="white" transform="translate(0.400024 0.75)"/>
    </clipPath>
  </defs>
</svg>