<svg width="21" height="20" viewBox="0 0 21 20" fill="none" xmlns="http://www.w3.org/2000/svg">
  <path fill-rule="evenodd" clip-rule="evenodd" d="M4.32772 5.34749L4.93072 12.5195C4.97472 13.0715 5.42572 13.4855 5.97672 13.4855H5.98072H16.8917H16.8937C17.4147 13.4855 17.8597 13.0975 17.9337 12.5825L18.8837 6.02349C18.9057 5.86749 18.8667 5.71149 18.7717 5.58549C18.6777 5.45849 18.5397 5.37649 18.3837 5.35449C18.1747 5.36249 9.50172 5.35049 4.32772 5.34749ZM5.97472 14.9855C4.65772 14.9855 3.54272 13.9575 3.43572 12.6425L2.51972 1.74849L1.01272 1.48849C0.603716 1.41649 0.330716 1.02949 0.400716 0.620487C0.472716 0.211487 0.867716 -0.054513 1.26772 0.00948704L3.34772 0.369487C3.68272 0.428487 3.93772 0.706487 3.96672 1.04649L4.20172 3.84749C18.4777 3.85349 18.5237 3.86049 18.5927 3.86849C19.1497 3.94949 19.6397 4.24049 19.9737 4.68849C20.3077 5.13549 20.4477 5.68649 20.3677 6.23849L19.4187 12.7965C19.2397 14.0445 18.1557 14.9855 16.8957 14.9855H16.8907H5.98272H5.97472Z" fill="black"/>
  <path fill-rule="evenodd" clip-rule="evenodd" d="M15.2876 9.04382H12.5156C12.1006 9.04382 11.7656 8.70782 11.7656 8.29382C11.7656 7.87982 12.1006 7.54382 12.5156 7.54382H15.2876C15.7016 7.54382 16.0376 7.87982 16.0376 8.29382C16.0376 8.70782 15.7016 9.04382 15.2876 9.04382Z" fill="black"/>
  <path fill-rule="evenodd" clip-rule="evenodd" d="M5.54451 17.702C5.84551 17.702 6.08851 17.945 6.08851 18.246C6.08851 18.547 5.84551 18.791 5.54451 18.791C5.24251 18.791 4.99951 18.547 4.99951 18.246C4.99951 17.945 5.24251 17.702 5.54451 17.702Z" fill="black"/>
  <mask id="mask0_33437_4503" style="mask-type:luminance" maskUnits="userSpaceOnUse" x="4" y="17" width="3" height="2">
    <path fill-rule="evenodd" clip-rule="evenodd" d="M4.99902 18.2455C4.99902 18.5475 5.24202 18.7915 5.54502 18.7915C5.84602 18.7915 6.08902 18.5475 6.08902 18.2455C6.08902 17.9445 5.84602 17.7015 5.54502 17.7015C5.24202 17.7015 4.99902 17.9445 4.99902 18.2455Z" fill="white"/>
  </mask>
  <g mask="url(#mask0_33437_4503)">
    <path fill-rule="evenodd" clip-rule="evenodd" d="M0 23.7905H11.089V12.7015H0V23.7905Z" fill="black"/>
  </g>
  <path fill-rule="evenodd" clip-rule="evenodd" d="M5.54351 18.0409C5.43051 18.0409 5.33851 18.1329 5.33851 18.2459C5.33851 18.4729 5.74951 18.4729 5.74951 18.2459C5.74951 18.1329 5.65651 18.0409 5.54351 18.0409ZM5.54351 19.5409C4.82951 19.5409 4.24951 18.9599 4.24951 18.2459C4.24951 17.5319 4.82951 16.9519 5.54351 16.9519C6.25751 16.9519 6.83851 17.5319 6.83851 18.2459C6.83851 18.9599 6.25751 19.5409 5.54351 19.5409Z" fill="black"/>
  <path fill-rule="evenodd" clip-rule="evenodd" d="M16.8248 17.702C17.1258 17.702 17.3698 17.945 17.3698 18.246C17.3698 18.547 17.1258 18.791 16.8248 18.791C16.5228 18.791 16.2798 18.547 16.2798 18.246C16.2798 17.945 16.5228 17.702 16.8248 17.702Z" fill="black"/>
  <mask id="mask1_33437_4503" style="mask-type:luminance" maskUnits="userSpaceOnUse" x="16" y="17" width="2" height="2">
    <path fill-rule="evenodd" clip-rule="evenodd" d="M16.28 18.2455C16.28 18.5475 16.523 18.7915 16.825 18.7915C17.125 18.7915 17.37 18.5475 17.37 18.2455C17.37 17.9445 17.125 17.7015 16.825 17.7015C16.523 17.7015 16.28 17.9445 16.28 18.2455Z" fill="white"/>
  </mask>
  <g mask="url(#mask1_33437_4503)">
    <path fill-rule="evenodd" clip-rule="evenodd" d="M11.28 23.7905H22.37V12.7015H11.28V23.7905Z" fill="black"/>
  </g>
  <path fill-rule="evenodd" clip-rule="evenodd" d="M16.8238 18.0409C16.7118 18.0409 16.6198 18.1329 16.6198 18.2459C16.6208 18.4749 17.0308 18.4729 17.0298 18.2459C17.0298 18.1329 16.9368 18.0409 16.8238 18.0409ZM16.8238 19.5409C16.1098 19.5409 15.5298 18.9599 15.5298 18.2459C15.5298 17.5319 16.1098 16.9519 16.8238 16.9519C17.5388 16.9519 18.1198 17.5319 18.1198 18.2459C18.1198 18.9599 17.5388 19.5409 16.8238 19.5409Z" fill="black"/>
</svg>