<svg xmlns="http://www.w3.org/2000/svg" width="28" height="30" viewBox="0 0 40 40" fill="none">
  <path fill-rule="evenodd" clip-rule="evenodd" d="M30.8157 10.8157C31.2663 10.3651 31.2663 9.63451 30.8157 9.1839C30.3651 8.7333 29.6345 8.7333 29.1839 9.1839L19.9998 18.368L10.8157 9.1839C10.3651 8.7333 9.63451 8.7333 9.1839 9.1839C8.7333 9.63451 8.7333 10.3651 9.1839 10.8157L18.368 19.9998L9.1839 29.1839C8.7333 29.6345 8.7333 30.3651 9.1839 30.8157C9.63451 31.2663 10.3651 31.2663 10.8157 30.8157L19.9998 21.6316L29.1839 30.8157C29.6345 31.2663 30.3651 31.2663 30.8157 30.8157C31.2663 30.3651 31.2663 29.6345 30.8157 29.1839L21.6316 19.9998L30.8157 10.8157Z" fill="#121212"/>
</svg>