<svg xmlns="http://www.w3.org/2000/svg" width="18" height="14" viewBox="0 0 18 14" fill="none">
  <path fill-rule="evenodd" clip-rule="evenodd" d="M-0.00390625 0H25.6461V1.07734H-0.00390625V0ZM-0.00390625 2.15469H25.6461V3.23203H-0.00390625V2.15469ZM-0.00390625 4.30664H25.6461V5.38672H-0.00390625V4.30664ZM-0.00390625 6.46133H25.6461V7.53867H-0.00390625V6.46133ZM-0.00390625 8.61602H25.6461V9.69336H-0.00390625V8.61602ZM-0.00390625 10.768H25.6461V11.8453H-0.00390625V10.768ZM-0.00390625 12.9227H25.6461V14H-0.00390625V12.9227Z" fill="#BD3D44"/>
  <path fill-rule="evenodd" clip-rule="evenodd" d="M-0.00390625 1.07733H25.6461V2.15468H-0.00390625V1.07733ZM-0.00390625 3.23202H25.6461V4.30663H-0.00390625V3.23202ZM-0.00390625 5.38397H25.6461V6.46132H-0.00390625V5.38397ZM-0.00390625 7.53866H25.6461V8.616H-0.00390625V7.53866ZM-0.00390625 9.69335H25.6461V10.7707H-0.00390625V9.69335ZM-0.00390625 11.8453H25.6461V12.9226H-0.00390625V11.8453Z" fill="white"/>
  <path fill-rule="evenodd" clip-rule="evenodd" d="M-0.00341797 0H10.2561V7.53867H-0.00341797V0Z" fill="#192F5D"/>
  <path fill-rule="evenodd" clip-rule="evenodd" d="M0.853027 0.322632L0.947949 0.620679H1.24854L1.00596 0.803882L1.09824 1.10466L0.853027 0.918726L0.610449 1.10193L0.702734 0.803882L0.45752 0.620679H0.763379L0.853027 0.322632ZM2.56426 0.322632L2.65654 0.620679H2.95977L2.71455 0.803882L2.80684 1.10466L2.56426 0.918726L2.31904 1.10193L2.41133 0.803882L2.16875 0.620679H2.46934L2.56426 0.322632ZM4.27285 0.322632L4.36777 0.620679H4.66572L4.42314 0.803882L4.51543 1.10466L4.27022 0.918726L4.02764 1.10193L4.11992 0.803882L3.87471 0.620679H4.17793L4.27285 0.322632ZM5.98408 0.322632L6.07637 0.620679H6.37959L6.13438 0.803882L6.2293 1.10466L5.98408 0.918726L5.73887 1.10193L5.83379 0.803882L5.58857 0.620679H5.88916L5.98408 0.322632ZM7.69268 0.322632L7.7876 0.620679H8.08818L7.84561 0.803882L7.93789 1.10466L7.69268 0.918726L7.4501 1.10193L7.54238 0.803882L7.2998 0.620679H7.60039L7.69268 0.322632ZM9.40391 0.322632L9.49619 0.620679H9.79941L9.5542 0.803882L9.64912 1.10466L9.40391 0.918726L9.15869 1.10193L9.25361 0.803882L9.0084 0.620679H9.31162L9.40391 0.322632ZM1.70996 1.07732L1.80225 1.37537H2.10547L1.86025 1.55857L1.9499 1.85662L1.7126 1.67341L1.46738 1.85662L1.55439 1.55857L1.31709 1.37537H1.61768L1.70996 1.07732ZM3.41855 1.07732L3.51348 1.37537H3.81406L3.56885 1.55857L3.66377 1.85662L3.41855 1.67341L3.17334 1.85662L3.26826 1.55857L3.02305 1.37537H3.32627L3.41855 1.07732ZM5.12979 1.07732L5.22207 1.37537H5.52529L5.28008 1.55857L5.37236 1.85662L5.12979 1.67341L4.88457 1.85662L4.97686 1.55857L4.73428 1.37537H5.03486L5.12979 1.07732ZM6.83838 1.07732L6.9333 1.37537H7.23389L6.98867 1.55857L7.08359 1.85662L6.83838 1.67341L6.5958 1.85662L6.68809 1.55857L6.44287 1.37537H6.74873L6.83838 1.07732ZM8.54961 1.07732L8.64189 1.37537H8.94512L8.6999 1.55857L8.79219 1.85662L8.54961 1.67341L8.30439 1.85662L8.39668 1.55857L8.1541 1.37537H8.45469L8.54961 1.07732ZM0.853027 1.82927L0.947949 2.13279H1.24854L1.00596 2.31599L1.09824 2.61404L0.853027 2.4281L0.610449 2.61404L0.702734 2.31326L0.45752 2.13005H0.763379L0.853027 1.82927ZM2.56426 1.82927L2.65654 2.13005H2.95977L2.71455 2.31326L2.80684 2.6113L2.56426 2.42537L2.31904 2.6113L2.41133 2.31052L2.16875 2.12732H2.46934L2.56426 1.82927ZM4.27285 1.82927L4.36777 2.13005H4.66572L4.42314 2.31326L4.51543 2.6113L4.27022 2.42537L4.02764 2.6113L4.11992 2.31052L3.87471 2.12732H4.17793L4.27285 1.82927ZM5.98408 1.82927L6.07637 2.13005H6.37959L6.13438 2.31326L6.2293 2.6113L5.98408 2.42537L5.73887 2.6113L5.83379 2.31052L5.58857 2.12732H5.88916L5.98408 1.82927ZM7.69268 1.82927L7.7876 2.13005H8.08818L7.84561 2.31326L7.93789 2.6113L7.69268 2.42537L7.4501 2.6113L7.54238 2.31052L7.2998 2.12732H7.60039L7.69268 1.82927ZM9.40391 1.82927L9.49619 2.13005H9.79941L9.5542 2.31326L9.64912 2.6113L9.40391 2.42537L9.15869 2.6113L9.25361 2.31052L9.0084 2.12732H9.31162L9.40391 1.82927ZM1.70996 2.58396L1.80225 2.88201H2.10547L1.86025 3.06521L1.95254 3.36599L1.70996 3.18005L1.46475 3.36326L1.55703 3.06521L1.31445 2.88201H1.61504L1.70996 2.58396ZM3.41855 2.58396L3.51348 2.88201H3.81406L3.56885 3.06521L3.66377 3.36599L3.41855 3.18005L3.17334 3.36326L3.26826 3.06521L3.02305 2.88201H3.32627L3.41855 2.58396ZM5.12979 2.58396L5.22207 2.88201H5.52529L5.28008 3.06521L5.37236 3.36599L5.12979 3.18005L4.88457 3.36326L4.97686 3.06521L4.73428 2.88201H5.03486L5.12979 2.58396ZM6.83838 2.58396L6.9333 2.88201H7.23389L6.99131 3.06521L7.08359 3.36599L6.83838 3.18005L6.5958 3.36326L6.68809 3.06521L6.44287 2.88201H6.74873L6.83838 2.58396ZM8.54961 2.58396L8.64189 2.88201H8.94512L8.6999 3.06521L8.79219 3.36599L8.54961 3.18005L8.30439 3.36326L8.39668 3.06521L8.1541 2.88201H8.45469L8.54961 2.58396ZM0.853027 3.33865L0.947949 3.63669H1.24854L1.00596 3.8199L1.09824 4.12068L0.853027 3.93474L0.610449 4.11794L0.702734 3.8199L0.45752 3.63669H0.763379L0.853027 3.33865ZM2.56426 3.33865L2.65654 3.63669H2.95977L2.71455 3.8199L2.80684 4.11794L2.56426 3.93474L2.31904 4.11794L2.41133 3.8199L2.16875 3.63669H2.46934L2.56426 3.33865ZM4.27285 3.33865L4.36777 3.63669H4.66572L4.42314 3.8199L4.51543 4.12068L4.27022 3.93474L4.02764 4.11794L4.11992 3.8199L3.87471 3.63669H4.17793L4.27285 3.33865ZM5.98408 3.33865L6.07637 3.63669H6.37959L6.13438 3.8199L6.2293 4.12068L5.98408 3.93474L5.73887 4.11794L5.83379 3.8199L5.58857 3.63669H5.88916L5.98408 3.33865ZM7.69268 3.33865L7.7876 3.63669H8.08818L7.84561 3.8199L7.93789 4.12068L7.69268 3.93474L7.4501 4.11794L7.54238 3.8199L7.2998 3.63669H7.60039L7.69268 3.33865ZM9.40391 3.33865L9.49619 3.63669H9.79941L9.5542 3.8199L9.64912 4.12068L9.40391 3.93474L9.15869 4.11794L9.25361 3.8199L9.0084 3.63669H9.31162L9.40391 3.33865ZM1.70996 4.09333L1.80225 4.39138H2.10547L1.86025 4.57458L1.95254 4.87263L1.70996 4.68669L1.46475 4.87263L1.55703 4.57185L1.31445 4.38865H1.61504L1.70996 4.09333ZM3.41855 4.09333L3.51348 4.39138H3.81406L3.56885 4.57458L3.66377 4.87263L3.41855 4.68669L3.17334 4.87263L3.26826 4.57185L3.02305 4.38865H3.32627L3.41855 4.09333ZM5.12979 4.09333L5.22207 4.39138H5.52529L5.28008 4.57458L5.37236 4.87263L5.12979 4.68669L4.88457 4.87263L4.97686 4.57185L4.73428 4.38865H5.03486L5.12979 4.09333ZM6.83838 4.09333L6.9333 4.39138H7.23389L6.99131 4.57458L7.08359 4.87263L6.83838 4.68669L6.5958 4.87263L6.68809 4.57185L6.44287 4.38865H6.74873L6.83838 4.09333ZM8.54961 4.09333L8.64189 4.39138H8.94512L8.6999 4.57458L8.79219 4.87263L8.54961 4.68669L8.30439 4.87263L8.39668 4.57185L8.1541 4.38865H8.45469L8.54961 4.09333ZM0.853027 4.84529L0.947949 5.14607H1.24854L1.00596 5.32927L1.09824 5.62458L0.853027 5.44138L0.610449 5.62458L0.702734 5.32654L0.45752 5.14333H0.763379L0.853027 4.84529ZM2.56426 4.84529L2.65654 5.14607H2.95977L2.71455 5.32927L2.80947 5.62458L2.56426 5.44138L2.31904 5.62458L2.41396 5.32654L2.16875 5.14333H2.46934L2.56426 4.84529ZM4.27285 4.84529L4.36777 5.14607H4.66572L4.42314 5.32927L4.51543 5.62458L4.27022 5.44138L4.02764 5.62458L4.11992 5.32654L3.87471 5.14333H4.17793L4.27285 4.84529ZM5.98408 4.84529L6.07637 5.14607H6.37959L6.13438 5.32927L6.2293 5.62458L5.98408 5.44138L5.73887 5.62458L5.83379 5.32654L5.58857 5.14333H5.88916L5.98408 4.84529ZM7.69268 4.84529L7.7876 5.14607H8.08818L7.84561 5.32927L7.93789 5.62458L7.69268 5.44138L7.4501 5.62458L7.54238 5.32654L7.2998 5.14333H7.60039L7.69268 4.84529ZM9.40391 4.84529L9.49619 5.14607H9.79941L9.5542 5.32927L9.64912 5.62458L9.40391 5.44138L9.15869 5.62458L9.25361 5.32654L9.0084 5.14333H9.31162L9.40391 4.84529ZM1.70996 5.59998L1.80225 5.89802H2.10547L1.86025 6.08123L1.95254 6.38201L1.70996 6.19607L1.46475 6.37927L1.55703 6.08123L1.31445 5.89802H1.61504L1.70996 5.59998ZM3.41855 5.59998L3.51348 5.89802H3.81406L3.56885 6.08123L3.66377 6.38201L3.41855 6.19607L3.17334 6.37927L3.26826 6.08123L3.02305 5.89802H3.32627L3.41855 5.59998ZM5.12979 5.59998L5.22207 5.89802H5.52529L5.28008 6.08123L5.37236 6.38201L5.12979 6.19607L4.88457 6.37927L4.97686 6.08123L4.73428 5.89802H5.03486L5.12979 5.59998ZM6.83838 5.59998L6.9333 5.89802H7.23389L6.99131 6.08123L7.08359 6.38201L6.83838 6.19607L6.5958 6.37927L6.68809 6.08123L6.44287 5.89802H6.74873L6.83838 5.59998ZM8.54961 5.59998L8.64189 5.89802H8.94512L8.6999 6.08123L8.79219 6.38201L8.54961 6.19607L8.30439 6.37927L8.39668 6.08123L8.1541 5.89802H8.45469L8.54961 5.59998ZM0.853027 6.35466L0.947949 6.65271H1.24854L1.00596 6.83591L1.09824 7.13396L0.853027 6.95076L0.610449 7.13396L0.702734 6.83318L0.45752 6.64998H0.763379L0.853027 6.35466ZM2.56426 6.35466L2.65654 6.65271H2.95977L2.71455 6.83591L2.80947 7.13396L2.56426 6.95076L2.31904 7.13396L2.41396 6.83318L2.16875 6.64998H2.46934L2.56426 6.35466ZM4.27285 6.35466L4.36777 6.65271H4.66572L4.42842 6.83591L4.5207 7.13396L4.27549 6.95076L4.03291 7.13396L4.1252 6.83318L3.87998 6.64998H4.1832L4.27285 6.35466ZM5.98408 6.35466L6.07637 6.65271H6.37959L6.13438 6.83591L6.2293 7.13396L5.98408 6.95076L5.73887 7.13396L5.83379 6.83318L5.58857 6.64998H5.88916L5.98408 6.35466ZM7.69268 6.35466L7.7876 6.65271H8.08818L7.84561 6.83591L7.93789 7.13396L7.69268 6.95076L7.4501 7.13396L7.54238 6.83318L7.2998 6.64998H7.60039L7.69268 6.35466ZM9.40391 6.35466L9.49619 6.65271H9.79941L9.5542 6.83591L9.64912 7.13396L9.40391 6.95076L9.15869 7.13396L9.25361 6.83318L9.0084 6.64998H9.31162L9.40391 6.35466Z" fill="white"/>
</svg>