<svg xmlns="http://www.w3.org/2000/svg" width="26" height="26" viewBox="0 0 26 26" fill="none">
  <path d="M20.4523 13.9632L13.0083 21.125L5.56421 13.9632M5.56421 13.9632C5.07321 13.4991 4.68645 12.9413 4.4283 12.3248C4.17014 11.7083 4.04618 11.0466 4.06422 10.3813C4.08226 9.71606 4.24191 9.06161 4.53312 8.4592C4.82432 7.8568 5.24078 7.31949 5.75625 6.88111C6.27173 6.44274 6.87507 6.11279 7.52826 5.91204C8.18146 5.7113 8.87037 5.6441 9.55161 5.7147C10.2329 5.78529 10.8917 5.99214 11.4866 6.32222C12.0815 6.6523 12.5996 7.09845 13.0083 7.6326C13.4187 7.10233 13.9374 6.66007 14.5319 6.3335C15.1264 6.00692 15.7839 5.80306 16.4632 5.73467C17.1426 5.66629 17.8291 5.73485 18.4799 5.93606C19.1307 6.13727 19.7318 6.46681 20.2454 6.90404C20.7591 7.34128 21.1743 7.8768 21.4651 8.47709C21.7559 9.07739 21.9161 9.72952 21.9355 10.3927C21.9549 11.0559 21.8332 11.7158 21.578 12.3312C21.3228 12.9466 20.9396 13.5041 20.4523 13.969" stroke="#121212" stroke-width="1.5" stroke-linecap="round" stroke-linejoin="round"/>
</svg>