<svg xmlns="http://www.w3.org/2000/svg" width="18" height="18" viewBox="0 0 18 18" fill="none">
  <path fill-rule="evenodd" clip-rule="evenodd" d="M6.24341 3.71094C5.00077 3.71094 3.99341 4.7183 3.99341 5.96094V11.9609C3.99341 13.2036 5.00077 14.2109 6.24341 14.2109H12.2434C13.4861 14.2109 14.4934 13.2036 14.4934 11.9609V5.96094C14.4934 4.7183 13.4861 3.71094 12.2434 3.71094H6.24341ZM2.49341 5.96094C2.49341 3.88987 4.17234 2.21094 6.24341 2.21094H12.2434C14.3145 2.21094 15.9934 3.88987 15.9934 5.96094V11.9609C15.9934 14.032 14.3145 15.7109 12.2434 15.7109H6.24341C4.17234 15.7109 2.49341 14.032 2.49341 11.9609V5.96094ZM9.24341 7.46094C8.41498 7.46094 7.74341 8.13251 7.74341 8.96094C7.74341 9.78937 8.41498 10.4609 9.24341 10.4609C10.0718 10.4609 10.7434 9.78937 10.7434 8.96094C10.7434 8.13251 10.0718 7.46094 9.24341 7.46094ZM6.24341 8.96094C6.24341 7.30408 7.58655 5.96094 9.24341 5.96094C10.9003 5.96094 12.2434 7.30408 12.2434 8.96094C12.2434 10.6178 10.9003 11.9609 9.24341 11.9609C7.58655 11.9609 6.24341 10.6178 6.24341 8.96094ZM13.3684 5.58594C13.3684 5.17172 13.0326 4.83594 12.6184 4.83594C12.2042 4.83594 11.8684 5.17172 11.8684 5.58594V5.58669C11.8684 6.0009 12.2042 6.33669 12.6184 6.33669C13.0326 6.33669 13.3684 6.0009 13.3684 5.58669V5.58594Z" fill="#121212"/>
</svg>