<svg xmlns="http://www.w3.org/2000/svg" width="18" height="18" viewBox="0 0 18 18" fill="none">
  <path fill-rule="evenodd" clip-rule="evenodd" d="M3.28837 4.82677C3.41331 4.58635 3.66463 4.42212 3.9543 4.42212H14.4543C14.744 4.42212 14.9953 4.58635 15.1202 4.82677L9.2043 8.77073L3.28837 4.82677ZM1.70435 5.15774C1.7042 5.16596 1.70418 5.17417 1.7043 5.18237V12.6721C1.7043 13.9148 2.71166 14.9221 3.9543 14.9221H14.4543C15.6969 14.9221 16.7043 13.9148 16.7043 12.6721V5.18239M15.2043 6.57351V12.6721C15.2043 13.0863 14.8685 13.4221 14.4543 13.4221H3.9543C3.54009 13.4221 3.2043 13.0863 3.2043 12.6721V6.57351L8.78828 10.2962C9.0402 10.4641 9.3684 10.4641 9.62033 10.2962L15.2043 6.57351ZM16.7043 5.15772C16.6965 3.92171 15.6921 2.92212 14.4543 2.92212H3.9543C2.71646 2.92212 1.71208 3.92172 1.70435 5.15774" fill="#121212"/>
</svg>