<svg xmlns="http://www.w3.org/2000/svg" width="67" height="67" viewBox="0 0 67 67" fill="none">
  <g clip-path="url(#clip0_22_179)">
    <path fill-rule="evenodd" clip-rule="evenodd" d="M24.4999 45.8543V30.8789C24.4999 30.7081 24.6712 30.5373 24.8425 30.5373H30.6735C30.8448 30.5373 31.0161 30.7081 31.0161 30.8789V45.8543C31.0161 46.0854 30.8079 46.2294 30.5694 46.2294H24.9467C24.7082 46.2294 24.4999 46.0854 24.4999 45.8543ZM36.6859 0.00366211H36.8135C37.1091 0.00701083 37.3644 0.0371493 37.7003 0.0371493C37.8716 0.0371493 38.0462 0.0338006 38.2175 0.0371493C38.4157 0.040498 38.4762 0.0739852 38.6945 0.0739852C38.8624 0.0739852 39.0438 0.0672878 39.2117 0.0706365C39.3898 0.0773339 39.4469 0.107472 39.6551 0.107472C40.0011 0.107472 40.3 0.120867 40.6493 0.14096L41.573 0.211283C42.0197 0.214631 42.9569 0.305047 43.4204 0.351929C45.7179 0.593037 48.0623 0.891073 50.2557 1.53738C50.5311 1.61775 50.7763 1.67802 51.0517 1.76844C51.7974 2.00955 52.5397 2.25735 53.2585 2.54199C53.7422 2.73287 54.1822 2.96728 54.6591 3.16151C55.1092 3.34568 55.5291 3.62028 55.9557 3.85469C56.399 4.0958 56.7853 4.357 57.1984 4.63159L58.9115 5.9309C59.375 6.29256 60.5506 7.41773 60.9335 7.91334L61.3903 8.44913C62.3006 9.5944 63.0932 10.7731 63.7617 12.1026C64.4637 13.499 64.9977 14.949 65.4377 16.4492C66.1229 18.7866 66.3648 20.8294 66.6671 23.2237L67.0198 29.3686C67.0164 29.8475 66.9727 30.4 67.0231 30.8688C67.0937 31.4917 67.0735 35.413 67.0198 36.0727C66.9794 36.565 67.0198 37.1108 67.0198 37.6098C67.0198 37.8208 66.9828 37.8743 66.9828 38.0853L66.9492 39.5922C66.9492 39.8032 66.9123 39.8568 66.9123 40.0677C66.9123 40.7107 66.8182 42.1674 66.7376 42.9343L66.4286 45.6702C66.1397 47.6894 65.74 49.5982 65.1287 51.517C64.4469 53.6535 63.4224 55.8067 62.0722 57.5983C61.9915 57.7088 61.9412 57.7858 61.8572 57.8963C61.35 58.5627 60.7991 59.2124 60.2046 59.8051C59.6912 60.3209 59.152 60.8104 58.589 61.2718L58.0314 61.7072C57.541 62.0722 57.0339 62.4372 56.5032 62.7486L55.5425 63.2945C55.4149 63.3614 55.3477 63.4083 55.21 63.4787C53.5877 64.279 52.9394 64.5067 51.2029 65.0927C50.6957 65.2635 50.165 65.3908 49.6175 65.5281C44.5187 66.8006 38.2881 66.8743 32.3126 66.8743C26.9082 66.8743 21.6348 66.5896 17.3187 65.5147C15.6426 65.0961 13.2679 64.3326 11.6993 63.4251C11.5952 63.3648 11.4944 63.328 11.3802 63.2643C9.88217 62.4305 9.39849 62.0253 8.18594 61.081C8.11541 61.0274 8.11877 61.0341 8.05495 60.9738L7.5041 60.4949C6.93645 59.9524 6.23781 59.2827 5.76421 58.6732L4.86403 57.5213C3.9605 56.3258 3.26857 54.9696 2.65726 53.6033L2.35832 52.8766C2.26427 52.6154 2.1803 52.4111 2.09297 52.1499C2.01236 51.9055 1.90152 51.6443 1.83098 51.3864C1.75709 51.1152 1.66304 50.854 1.5925 50.5995C1.44135 50.0603 1.31036 49.5413 1.17936 48.9921C0.914011 47.8636 0.725915 46.7284 0.554613 45.5128C0.450489 44.7794 0.181779 42.5324 0.178421 41.8191C0.175062 41.0657 0.0642193 40.1582 0.0407073 39.3913C0.0373484 39.2239 0.0440662 39.0464 0.0440662 38.8756C0.0440662 38.6646 0.00711888 38.6111 0.00711888 38.4001L-0.0264699 34.8772C-0.0264699 34.539 -0.0600586 34.2879 -0.0600586 33.9195C-0.0600586 32.5499 -0.0197521 31.2472 -0.0264699 29.8508C-0.0264699 29.6331 0.00711863 29.5729 0.0104775 29.3753C0.0171952 28.7089 0.0575016 26.5155 0.138114 25.9462C0.201933 25.4874 0.185138 24.6067 0.26911 24.0274C0.316134 23.7159 0.326211 23.3945 0.35644 23.0864C0.608355 20.4945 1.0618 17.8624 1.87465 15.4379C2.37512 13.941 2.97299 12.5446 3.73881 11.175L4.51807 9.93262C4.93121 9.31645 5.3813 8.75387 5.84818 8.18124L6.55354 7.38089C6.86927 7.02258 7.26898 6.70445 7.59814 6.37293C8.34045 5.62281 9.97622 4.48425 10.8294 3.98529C13.7986 2.2473 16.6133 1.4704 19.952 0.840842C20.9731 0.646616 22.9817 0.372021 24.0196 0.315093C24.5033 0.288303 24.9601 0.214631 25.4606 0.211283C25.9308 0.207934 26.7235 0.107472 27.3818 0.107472C27.6002 0.107472 27.6606 0.0739852 27.8588 0.0706365C28.0301 0.0672878 28.2048 0.0739852 28.3761 0.0739852C28.5742 0.0706365 28.6347 0.0371493 28.853 0.0371493L36.6859 0.00366211V0.00366211ZM47.1689 45.8209V21.1006C47.1689 20.8662 47.3268 20.6552 47.5451 20.6552H53.067C53.2854 20.6552 53.4432 20.8662 53.4432 21.1006V45.8209C53.4432 46.0653 53.2216 46.2327 52.9629 46.2327H47.6458C47.3872 46.2327 47.1655 46.0653 47.1655 45.8209H47.1689ZM19.0821 46.2327H13.7314C13.4929 46.2327 13.2847 46.0887 13.2847 45.8577V21.0336C13.2847 20.8327 13.4627 20.6586 13.6609 20.6586C19.3978 20.6586 25.2187 20.6921 30.9456 20.6586L32.0775 20.6921C32.2623 20.6954 32.2791 20.7222 32.4537 20.7289L33.9014 20.826C34.1634 20.8528 34.375 20.8729 34.6168 20.8997C35.0636 20.9499 35.5472 21.0236 35.9738 21.1207C38.6844 21.7268 40.2429 22.5673 41.2808 25.1994C42.1474 27.3928 42.2314 31.0965 42.2314 33.6215V45.8275C42.2314 46.072 42.0097 46.2394 41.751 46.2394H36.434C35.8294 46.2394 35.9536 45.6266 35.9536 45.0439V33.2832C35.9536 31.5988 35.994 28.9801 34.9292 27.567C33.8779 26.1706 31.5636 25.9663 29.7801 25.9663H20.0058C19.4751 25.9663 19.5255 26.4686 19.5255 26.7867C19.5288 28.8629 19.5691 45.8008 19.5087 45.9849C19.4852 46.0553 19.4079 46.1423 19.3542 46.1725C19.2903 46.2093 19.1862 46.2394 19.0787 46.2394L19.0821 46.2327Z" fill="#FF6900"/>
  </g>
  <defs>
    <clipPath id="clip0_22_179">
      <rect width="67" height="67" fill="white"/>
    </clipPath>
  </defs>
</svg>