<svg width="19" height="22" viewBox="0 0 19 22" fill="none" xmlns="http://www.w3.org/2000/svg">
  <mask id="mask0_33437_4377" style="mask-type:luminance" maskUnits="userSpaceOnUse" x="0" y="0" width="19" height="18">
    <path fill-rule="evenodd" clip-rule="evenodd" d="M0 0.00012207H18.4969V17.3481H0V0.00012207Z" fill="white"/>
  </mask>
  <g mask="url(#mask0_33437_4377)">
    <path fill-rule="evenodd" clip-rule="evenodd" d="M9.24701 1.50012C5.75201 1.50012 3.31601 4.23812 3.31601 6.69512C3.31601 8.77412 2.73901 9.73512 2.22901 10.5831C1.82001 11.2641 1.49701 11.8021 1.49701 12.9711C1.66401 14.8571 2.90901 15.8481 9.24701 15.8481C15.55 15.8481 16.834 14.8131 17 12.9061C16.997 11.8021 16.674 11.2641 16.265 10.5831C15.755 9.73512 15.178 8.77412 15.178 6.69512C15.178 4.23812 12.742 1.50012 9.24701 1.50012ZM9.24701 17.3481C4.57101 17.3481 0.345013 17.0181 1.33547e-05 13.0351C-0.00298665 11.3871 0.500013 10.5491 0.944013 9.81112C1.39301 9.06312 1.81601 8.35812 1.81601 6.69512C1.81601 3.46212 4.80201 0.00012207 9.24701 0.00012207C13.692 0.00012207 16.678 3.46212 16.678 6.69512C16.678 8.35812 17.101 9.06312 17.55 9.81112C17.994 10.5491 18.497 11.3871 18.497 12.9711C18.148 17.0181 13.923 17.3481 9.24701 17.3481Z" fill="black"/>
  </g>
  <path fill-rule="evenodd" clip-rule="evenodd" d="M9.19827 21.5001H9.19627C8.07527 21.4991 7.01427 21.0051 6.20927 20.1081C5.93227 19.8011 5.95727 19.3261 6.26527 19.0501C6.57327 18.7721 7.04727 18.7971 7.32427 19.1061C7.84227 19.6831 8.50727 20.0001 9.19727 20.0001H9.19827C9.89127 20.0001 10.5593 19.6831 11.0783 19.1051C11.3563 18.7981 11.8303 18.7731 12.1373 19.0501C12.4453 19.3271 12.4703 19.8021 12.1933 20.1091C11.3853 21.0061 10.3223 21.5001 9.19827 21.5001Z" fill="black"/>
</svg>