<svg width="16" height="20" viewBox="0 0 16 20" fill="none" xmlns="http://www.w3.org/2000/svg">
  <path fill-rule="evenodd" clip-rule="evenodd" d="M7.8889 10.6189H7.92089C10.8489 10.6189 13.2299 8.23788 13.2299 5.30988C13.2299 2.38188 10.8489 -0.00012207 7.92089 -0.00012207C4.99189 -0.00012207 2.60989 2.38188 2.60989 5.30688C2.59989 8.22688 4.9669 10.6099 7.8889 10.6189ZM4.03789 5.30988C4.03789 3.16888 5.77989 1.42788 7.92089 1.42788C10.0609 1.42788 11.8019 3.16888 11.8019 5.30988C11.8019 7.44988 10.0609 9.19188 7.92089 9.19188H7.89189C5.75989 9.18388 4.03089 7.44388 4.03789 5.30988Z" fill="black"/>
  <path fill-rule="evenodd" clip-rule="evenodd" d="M-0.00012207 16.1732C-0.00012207 19.8702 5.96188 19.8702 7.92088 19.8702C11.3199 19.8702 15.8399 19.4892 15.8399 16.1932C15.8399 12.4962 9.87988 12.4962 7.92088 12.4962C4.52088 12.4962 -0.00012207 12.8772 -0.00012207 16.1732ZM1.49988 16.1732C1.49988 14.7282 3.65988 13.9962 7.92088 13.9962C12.1809 13.9962 14.3399 14.7352 14.3399 16.1932C14.3399 17.6382 12.1809 18.3702 7.92088 18.3702C3.65988 18.3702 1.49988 17.6312 1.49988 16.1732Z" fill="black"/>
</svg>