<svg xmlns="http://www.w3.org/2000/svg" width="20" height="20" viewBox="0 0 20 20" fill="none">
  <path fill-rule="evenodd" clip-rule="evenodd" d="M10.3135 3.20654C6.58555 3.20654 3.56348 6.22862 3.56348 9.95654C3.56348 13.6845 6.58555 16.7065 10.3135 16.7065C14.0414 16.7065 17.0635 13.6845 17.0635 9.95654C17.0635 6.22862 14.0414 3.20654 10.3135 3.20654ZM2.06348 9.95654C2.06348 5.40019 5.75713 1.70654 10.3135 1.70654C14.8698 1.70654 18.5635 5.40019 18.5635 9.95654C18.5635 14.5129 14.8698 18.2065 10.3135 18.2065C5.75713 18.2065 2.06348 14.5129 2.06348 9.95654ZM10.3135 13.3732C10.7277 13.3732 11.0635 13.709 11.0635 14.1232V14.1316C11.0635 14.5458 10.7277 14.8816 10.3135 14.8816C9.89926 14.8816 9.56347 14.5458 9.56347 14.1316V14.1232C9.56347 13.709 9.89926 13.3732 10.3135 13.3732ZM10.381 5.01618C9.92956 5.01493 9.484 5.11848 9.07939 5.31869C8.67478 5.51889 8.32217 5.81028 8.04931 6.16992C7.79895 6.49991 7.8635 6.97038 8.19349 7.22074C8.52347 7.4711 8.99394 7.40655 9.2443 7.07656C9.37683 6.90188 9.5481 6.76035 9.74463 6.66311C9.94115 6.56587 10.1576 6.51557 10.3768 6.51618C10.5961 6.51679 10.8122 6.56828 11.0082 6.66661C11.2042 6.76494 11.3747 6.90743 11.5062 7.08284C11.6378 7.25825 11.7268 7.46181 11.7664 7.67748C11.8059 7.89316 11.7948 8.11506 11.734 8.32573C11.6732 8.5364 11.5643 8.73007 11.4159 8.89151C11.2693 9.05099 11.0881 9.17471 10.8863 9.2532C10.4823 9.39807 10.1356 9.66911 9.89737 10.0264C9.65689 10.3871 9.54013 10.8162 9.56468 11.249C9.58813 11.6626 9.94239 11.9788 10.3559 11.9554C10.7695 11.9319 11.0857 11.5777 11.0623 11.1641C11.0561 11.0559 11.0853 10.9486 11.1454 10.8584C11.2056 10.7683 11.2934 10.7001 11.3956 10.6641L11.4147 10.6571C11.8363 10.4959 12.2148 10.2389 12.5203 9.90657C12.8258 9.5742 13.05 9.17546 13.1752 8.74173C13.3004 8.30801 13.3232 7.85115 13.2418 7.40711C13.1604 6.96307 12.9771 6.54398 12.7062 6.18284C12.4354 5.82169 12.0844 5.52835 11.6809 5.3259C11.2774 5.12346 10.8324 5.01744 10.381 5.01618Z" fill="#121212"/>
</svg>