<svg xmlns="http://www.w3.org/2000/svg" width="114" height="34" viewBox="0 0 114 34" fill="none">
  <g clip-path="url(#clip0_22_172)">
    <path d="M0 0H114V34H0V0Z" fill="#FFC915"/>
    <path d="M47.0535 10.1276C48.8395 10.1276 50.5622 10.7289 51.8668 11.793V10.37H54.3147V25.8558H51.8668V24.4391C50.5843 25.4969 48.8617 26.095 47.0535 26.095C44.8368 26.095 42.8197 25.2797 41.3757 23.8C39.9443 22.3393 39.159 20.3245 39.159 18.1239C39.159 15.9202 39.9475 13.8991 41.3757 12.4321C42.8228 10.9462 44.84 10.1276 47.0535 10.1276ZM30.1087 10.071C32.1132 10.071 33.9308 10.7982 35.2323 12.1236C36.6162 13.5339 37.354 15.5141 37.3698 17.8563V18.6528H24.7633C24.9153 21.5617 27.1478 23.7213 30.0517 23.7213C32.1353 23.7213 33.6268 22.8367 34.7478 20.9384L34.884 20.7086L37.0057 22.0654L36.8822 22.2763C35.4445 24.735 33.0822 26.0352 30.0485 26.0352C25.4727 26.0352 22.2775 22.758 22.2775 18.0673C22.2775 13.4332 25.5708 10.071 30.1087 10.071ZM95.2248 10.071C97.2293 10.071 99.047 10.7982 100.348 12.1236C101.732 13.5339 102.47 15.5141 102.486 17.8563V18.6528H89.8795C90.0315 21.5617 92.264 23.7213 95.1678 23.7213C97.2515 23.7213 98.743 22.8367 99.864 20.9384L100 20.7086L102.122 22.0654L101.998 22.2763C100.561 24.735 98.1983 26.0352 95.1647 26.0352C90.5888 26.0352 87.3937 22.758 87.3905 18.0673C87.3905 13.4332 90.687 10.071 95.2248 10.071ZM21.3338 10.3386V12.6525H14.2405V25.8526H11.7642V10.3386H21.3338ZM79.5308 10.1276C83.0775 10.1276 85.2815 12.5486 85.2815 16.446V25.8243H82.8052V16.446C82.8052 14.0125 81.4023 12.4415 79.23 12.4415C76.437 12.4415 75.4427 14.3556 75.4427 16.1469V25.8275H72.9663V16.4491C72.9663 13.9778 71.6078 12.4447 69.4197 12.4447C67.6178 12.4447 65.6925 13.8362 65.6925 15.9076V25.818H63.2162V10.3354H65.6925V11.8371C66.7153 10.7289 68.172 10.1276 69.8725 10.1276C72.39 10.1276 73.7675 11.3932 74.5085 12.5926C75.6358 11.0217 77.4408 10.1276 79.5308 10.1276ZM60.002 5.76746V25.8243H57.5257V5.76746H60.002ZM46.93 12.5926C43.9122 12.5926 41.6353 14.9726 41.6353 18.1271C41.6353 21.2658 43.9122 23.63 46.93 23.6332C50.0618 23.6332 52.1645 21.42 52.1645 18.1271C52.1645 14.8184 50.0618 12.5926 46.93 12.5926ZM30.0517 12.3817C27.5563 12.3817 25.4727 14.0313 24.8773 16.4302H34.8523C34.4153 13.9967 32.5217 12.3817 30.0517 12.3817ZM95.1647 12.3817C92.6693 12.3817 90.5857 14.0313 89.9903 16.4302H99.9653C99.5283 13.9967 97.6347 12.3817 95.1647 12.3817Z" fill="#111111"/>
  </g>
  <defs>
    <clipPath id="clip0_22_172">
      <rect width="114" height="34" fill="white"/>
    </clipPath>
  </defs>
</svg>