<svg xmlns="http://www.w3.org/2000/svg" width="18" height="12" viewBox="0 0 18 12" fill="none">
  <path fill-rule="evenodd" clip-rule="evenodd" d="M1 2.42875C1 2.12836 1.08912 1.87655 1.20836 1.71215C1.32805 1.54711 1.45033 1.5 1.53618 1.5H2.76316V5C2.76316 5.27614 2.98702 5.5 3.26316 5.5C3.5393 5.5 3.76316 5.27614 3.76316 5V1.5H5.52632V4C5.52632 4.27614 5.75017 4.5 6.02632 4.5C6.30246 4.5 6.52632 4.27614 6.52632 4V1.5H8.28948V5C8.28948 5.27614 8.51333 5.5 8.78948 5.5C9.06562 5.5 9.28948 5.27614 9.28948 5V1.5H11.0526V4C11.0526 4.27614 11.2765 4.5 11.5526 4.5C11.8288 4.5 12.0526 4.27614 12.0526 4V1.5H13.8158V5C13.8158 5.27614 14.0397 5.5 14.3158 5.5C14.5919 5.5 14.8158 5.27614 14.8158 5V1.5H16.0428C16.1286 1.5 16.2509 1.54711 16.3706 1.71215C16.4898 1.87655 16.5789 2.12836 16.5789 2.42875V9.57125C16.5789 9.87163 16.4898 10.1234 16.3706 10.2878C16.2509 10.4529 16.1286 10.5 16.0428 10.5H1.42105C1.36723 10.5 1.27124 10.4716 1.1723 10.3373C1.07146 10.2004 1 9.9902 1 9.75V2.42875ZM11.5526 0.5H14.3158H16.0428C16.5289 0.5 16.9247 0.772885 17.1801 1.12504C17.436 1.47782 17.5789 1.94038 17.5789 2.42875V9.57125C17.5789 10.0596 17.436 10.5222 17.1801 10.875C16.9247 11.2271 16.5289 11.5 16.0428 11.5H1.42105C0.986318 11.5 0.613763 11.265 0.367242 10.9305C0.122623 10.5985 0 10.1728 0 9.75V2.42875C0 1.94038 0.142986 1.47782 0.398848 1.12504C0.654253 0.772885 1.05006 0.5 1.53618 0.5H3.26316H6.02632H8.78948H11.5526Z" fill="#121212"/>
</svg>