<svg width="21" height="21" viewBox="0 0 21 21" fill="none" xmlns="http://www.w3.org/2000/svg">
  <mask id="mask0_33437_4311" style="mask-type:luminance" maskUnits="userSpaceOnUse" x="0" y="0" width="20" height="20">
    <path fill-rule="evenodd" clip-rule="evenodd" d="M0 0.00012207H19.4768V19.4771H0V0.00012207Z" fill="white"/>
  </mask>
  <g mask="url(#mask0_33437_4311)">
    <path fill-rule="evenodd" clip-rule="evenodd" d="M9.73876 1.50012C5.19576 1.50012 1.49976 5.19512 1.49976 9.73812C1.49976 14.2811 5.19576 17.9771 9.73876 17.9771C14.2808 17.9771 17.9768 14.2811 17.9768 9.73812C17.9768 5.19512 14.2808 1.50012 9.73876 1.50012ZM9.73876 19.4771C4.36876 19.4771 -0.000244141 15.1081 -0.000244141 9.73812C-0.000244141 4.36812 4.36876 0.00012207 9.73876 0.00012207C15.1088 0.00012207 19.4768 4.36812 19.4768 9.73812C19.4768 15.1081 15.1088 19.4771 9.73876 19.4771Z" fill="black"/>
  </g>
  <mask id="mask1_33437_4311" style="mask-type:luminance" maskUnits="userSpaceOnUse" x="15" y="15" width="6" height="6">
    <path fill-rule="evenodd" clip-rule="evenodd" d="M15.24 15.707H20.264V20.7218H15.24V15.707Z" fill="white"/>
  </mask>
  <g mask="url(#mask1_33437_4311)">
    <path fill-rule="evenodd" clip-rule="evenodd" d="M19.5142 20.7218C19.3232 20.7218 19.1312 20.6488 18.9842 20.5028L15.4602 16.9888C15.1672 16.6958 15.1662 16.2208 15.4592 15.9278C15.7512 15.6328 16.2262 15.6348 16.5202 15.9258L20.0442 19.4408C20.3372 19.7338 20.3382 20.2078 20.0452 20.5008C19.8992 20.6488 19.7062 20.7218 19.5142 20.7218Z" fill="black"/>
  </g>
</svg>