<svg xmlns="http://www.w3.org/2000/svg" width="20" height="20" viewBox="0 0 20 20" fill="none">
  <path fill-rule="evenodd" clip-rule="evenodd" d="M14.7402 3.16357C13.7737 3.16357 12.9902 3.94708 12.9902 4.91357C12.9902 5.16506 13.0433 5.40415 13.1388 5.62027C13.1451 5.63111 13.1511 5.64217 13.1569 5.65343C13.1689 5.67677 13.1796 5.70045 13.189 5.72439C13.4814 6.28266 14.0663 6.66357 14.7402 6.66357C15.7067 6.66357 16.4902 5.88007 16.4902 4.91357C16.4902 3.94708 15.7067 3.16357 14.7402 3.16357ZM11.4902 4.91357C11.4902 5.15895 11.5174 5.39797 11.569 5.6278L7.25239 7.85149C6.65633 7.12618 5.75231 6.66357 4.74023 6.66357C2.94531 6.66357 1.49023 8.11865 1.49023 9.91357C1.49023 11.7085 2.94531 13.1636 4.74023 13.1636C5.75231 13.1636 6.65634 12.7009 7.2524 11.9756L11.569 14.1993C11.5174 14.4292 11.4902 14.6682 11.4902 14.9136C11.4902 16.7085 12.9453 18.1636 14.7402 18.1636C16.5352 18.1636 17.9902 16.7085 17.9902 14.9136C17.9902 13.1186 16.5352 11.6636 14.7402 11.6636C13.7281 11.6636 12.8241 12.1262 12.228 12.8515L7.91149 10.6278C7.96304 10.398 7.99023 10.159 7.99023 9.91357C7.99023 9.66817 7.96303 9.42913 7.91149 9.19929L12.228 6.97561C12.8241 7.70094 13.7281 8.16357 14.7402 8.16357C16.5352 8.16357 17.9902 6.7085 17.9902 4.91357C17.9902 3.11865 16.5352 1.66357 14.7402 1.66357C12.9453 1.66357 11.4902 3.11865 11.4902 4.91357ZM6.34193 10.6197C6.43728 10.4037 6.49023 10.1648 6.49023 9.91357C6.49023 9.66228 6.43727 9.42335 6.34189 9.20736C6.3355 9.19635 6.32935 9.18513 6.32346 9.17369C6.31135 9.15018 6.3006 9.12632 6.29118 9.10221C5.99869 8.54424 5.41391 8.16357 4.74023 8.16357C3.77374 8.16357 2.99023 8.94707 2.99023 9.91357C2.99023 10.8801 3.77374 11.6636 4.74023 11.6636C5.41389 11.6636 5.99864 11.2829 6.29115 10.725C6.30057 10.7009 6.31133 10.677 6.32346 10.6534C6.32936 10.642 6.33553 10.6307 6.34193 10.6197ZM13.1388 14.2068C13.1451 14.196 13.1511 14.1849 13.1569 14.1737C13.1689 14.1504 13.1796 14.1267 13.189 14.1028C13.4814 13.5445 14.0663 13.1636 14.7402 13.1636C15.7067 13.1636 16.4902 13.9471 16.4902 14.9136C16.4902 15.8801 15.7067 16.6636 14.7402 16.6636C13.7737 16.6636 12.9902 15.8801 12.9902 14.9136C12.9902 14.6621 13.0433 14.4229 13.1388 14.2068Z" fill="#121212"/>
</svg>